<svg width="143" height="149" viewBox="0 0 143 149" fill="none" xmlns="http://www.w3.org/2000/svg">
<path d="M68.0092 99.8635C69.1107 99.9459 70.0812 99.1182 70.0504 98.0141C69.9905 95.869 69.5769 93.7438 68.8218 91.7254C67.8325 89.0811 66.2809 86.6831 64.2741 84.6973C62.2673 82.7114 59.8532 81.185 57.1986 80.2235C55.1724 79.4896 53.043 79.0983 50.8974 79.0609C49.793 79.0417 48.9756 80.0208 49.0695 81.1214L50.4131 96.8607C50.4966 97.8389 51.2777 98.6118 52.2566 98.685L68.0092 99.8635Z" fill="#F7941F"/>
<path d="M2.42399 127.4C1.72196 130.325 5.28227 132.348 7.4358 130.248L39.4964 98.9788C40.1325 98.3585 40.4608 97.4881 40.393 96.6022L34.4559 19.0234C34.1949 15.6132 29.3456 15.2265 28.5475 18.5522L2.42399 127.4Z" fill="#3D61AB" stroke="#3D61AB"/>
<path fill-rule="evenodd" clip-rule="evenodd" d="M48.2797 69.578C49.6281 69.3707 51.0094 69.2632 52.4158 69.2632C67.3275 69.2632 79.4158 81.3515 79.4158 96.2632C79.4158 97.7057 79.3027 99.1217 79.0848 100.503L138.223 105.123C141.013 105.341 142.556 101.959 140.563 99.9955L49.1065 9.87106C47.133 7.92628 43.8033 9.46759 44.0091 12.2307L48.2797 69.578Z" fill="#238ACC"/>
<path d="M48.2797 69.578L47.781 69.6151L47.8212 70.1544L48.3556 70.0722L48.2797 69.578ZM79.0848 100.503L78.5909 100.425L78.5067 100.959L79.0459 101.001L79.0848 100.503ZM138.223 105.123L138.184 105.622L138.184 105.622L138.223 105.123ZM140.563 99.9955L140.914 99.6393L140.914 99.6393L140.563 99.9955ZM49.1065 9.87106L48.7556 10.2272L48.7556 10.2272L49.1065 9.87106ZM44.0091 12.2307L43.5105 12.2678L44.0091 12.2307ZM48.3556 70.0722C49.679 69.8688 51.0349 69.7632 52.4158 69.7632V68.7632C50.9838 68.7632 49.5771 68.8727 48.2037 69.0838L48.3556 70.0722ZM52.4158 69.7632C67.0513 69.7632 78.9158 81.6276 78.9158 96.2632H79.9158C79.9158 81.0754 67.6036 68.7632 52.4158 68.7632V69.7632ZM78.9158 96.2632C78.9158 97.6795 78.8047 99.0695 78.5909 100.425L79.5787 100.581C79.8006 99.1739 79.9158 97.7318 79.9158 96.2632H78.9158ZM138.262 104.625L79.1238 100.004L79.0459 101.001L138.184 105.622L138.262 104.625ZM140.212 100.352C141.873 101.988 140.587 104.806 138.262 104.625L138.184 105.622C141.439 105.876 143.239 101.93 140.914 99.6393L140.212 100.352ZM48.7556 10.2272L140.212 100.352L140.914 99.6393L49.4575 9.51492L48.7556 10.2272ZM44.5077 12.1935C44.3363 9.89098 47.111 8.60655 48.7556 10.2272L49.4575 9.51492C47.155 7.24602 43.2704 9.04421 43.5105 12.2678L44.5077 12.1935ZM48.7783 69.5409L44.5077 12.1935L43.5105 12.2678L47.781 69.6151L48.7783 69.5409Z" fill="#238ACC"/>
<path d="M11.7873 141.373C9.60984 143.506 11.6312 147.15 14.5932 146.432L125.161 119.627C128.464 118.826 128.099 114.015 124.712 113.723L48.2558 107.119C47.3844 107.043 46.5234 107.352 45.8985 107.964L11.7873 141.373Z" fill="#3CB54C" stroke="#3CB54C"/>
</svg>
