<svg width="800" height="800" viewBox="0 0 800 800" fill="none" xmlns="http://www.w3.org/2000/svg">
<path d="M373.333 0.87561C164.852 14.5979 0 188.047 0 400.001C0 620.917 179.086 800 400 800C500.86 800 593.003 762.672 663.36 701.072L381.357 419.069C376.284 414.108 373.333 407.258 373.333 400.001V0.87561Z" fill="#B1B1B1"/>
<path d="M701.072 663.36C762.672 593.003 800 500.86 800 400.001C800 345.163 788.965 292.902 768.992 245.318L445.019 407.306L701.072 663.36Z" fill="#B1B1B1"/>
<path d="M745.109 197.633C679.851 86.5845 562.523 9.81756 426.667 0.87561V356.853L745.109 197.633Z" fill="#B1B1B1"/>
</svg>
