<svg width="198" height="198" viewBox="0 0 198 198" fill="none" xmlns="http://www.w3.org/2000/svg">
<path d="M18 0C8.16244 0 0 8.16244 0 18V36C0 45.8376 8.16244 54 18 54H180C189.838 54 198 45.8376 198 36V18C198 8.16244 189.838 0 180 0H18ZM45 18H180V36H45V18ZM18 72C8.16244 72 0 80.1624 0 90V108C0 117.838 8.16244 126 18 126H180C189.838 126 198 117.838 198 108V90C198 80.1624 189.838 72 180 72H18ZM144 90H180V108H144V90ZM18 144C8.16244 144 0 152.162 0 162V180C0 189.838 8.16244 198 18 198H180C189.838 198 198 189.838 198 180V162C198 152.162 189.838 144 180 144H18ZM99 162H180V180H99V162Z" fill="#B1B1B1"/>
</svg>
