<svg width="500" height="500" viewBox="0 0 500 500" fill="none" xmlns="http://www.w3.org/2000/svg">
<path d="M186.221 0C175.258 0 168.125 4.65554 164.595 10.8128L148.977 38.4457H115.337C115.112 28.0834 106.552 19.8235 96.1141 19.8235H57.6685C47.0809 19.8235 38.4457 28.4588 38.4457 39.0464V45.0535C15.8438 55.9414 0 79.0689 0 105.726V240.285C0 277.304 30.2609 307.565 67.2799 307.565H144.772C144.547 304.336 144.171 301.258 144.171 297.954C144.171 275.577 149.352 254.102 157.988 234.879C143.721 218.134 134.56 196.809 134.56 173.005C134.56 119.842 177.586 76.8913 230.674 76.8913C274.451 76.8913 310.944 106.552 322.583 146.574C345.26 150.253 366.285 158.739 384.457 171.203V105.726C384.457 68.7066 354.196 38.4457 317.177 38.4457H312.371L296.752 10.8128C293.223 4.65554 285.639 0 275.127 0H186.221ZM57.6685 76.8913C68.2561 76.8913 76.8913 85.4515 76.8913 96.1141C76.8913 106.777 68.2561 115.337 57.6685 115.337C47.0809 115.337 38.4457 106.777 38.4457 96.1141C38.4457 85.4515 47.0809 76.8913 57.6685 76.8913ZM230.674 105.726C193.505 105.726 163.394 135.836 163.394 173.005C163.394 185.921 167.374 197.635 173.606 207.847C200.338 170.903 242.838 146.799 291.346 144.772C280.608 121.945 257.631 105.726 230.674 105.726ZM297.954 173.005C228.947 173.005 173.005 228.947 173.005 297.954C173.005 366.961 228.947 422.902 297.954 422.902C327.088 422.902 353.595 412.54 374.845 395.87L386.259 407.284C381.753 415.994 383.105 426.957 390.464 434.316L449.334 493.186C458.419 502.271 472.686 502.271 481.772 493.186L493.186 481.772C502.271 472.686 502.271 458.419 493.186 449.334L434.316 390.464C426.957 383.105 415.994 381.753 407.284 386.259L395.87 374.845C412.54 353.595 422.902 327.088 422.902 297.954C422.902 228.947 366.961 173.005 297.954 173.005ZM297.954 211.451C345.786 211.451 384.457 250.197 384.457 297.954C384.457 345.711 345.711 384.457 297.954 384.457C250.197 384.457 211.451 345.711 211.451 297.954C211.451 250.197 250.122 211.451 297.954 211.451Z" fill="white"/>
</svg>
